<svg id="Layer_1" enable-background="new 0 0 512 512" height="512" viewBox="0 0 512 512" width="512" xmlns="http://www.w3.org/2000/svg"><g><path d="m256 415.6c-19.262 0-37.847-8.274-49.933-21.493-17.085 5.388-37.309 3.265-53.961-6.34-16.679-9.619-28.632-26.077-32.482-43.579-17.485-3.872-33.93-15.828-43.547-32.488-9.638-16.696-11.773-36.916-6.377-53.973-13.224-12.079-21.5-30.66-21.5-49.927s8.276-37.849 21.499-49.927c-5.396-17.057-3.261-37.276 6.377-53.972 9.616-16.658 26.064-28.614 43.547-32.488 3.85-17.502 15.804-33.961 32.483-43.58 16.652-9.603 36.875-11.728 53.961-6.34 12.086-13.219 30.672-21.493 49.933-21.493s37.847 8.274 49.933 21.493c17.084-5.386 37.309-3.264 53.961 6.34 16.679 9.619 28.633 26.078 32.483 43.579 17.485 3.874 33.93 15.829 43.547 32.489 9.638 16.695 11.773 36.915 6.377 53.972 13.223 12.078 21.499 30.659 21.499 49.927s-8.276 37.849-21.499 49.927c5.396 17.057 3.261 37.276-6.376 53.973-9.617 16.659-26.064 28.614-43.548 32.488-3.851 17.502-15.804 33.96-32.483 43.579-16.651 9.604-36.877 11.726-53.961 6.34-12.086 13.219-30.671 21.493-49.933 21.493z" fill="#d9ff7d"/><path d="m256 415.6v-415.6c19.261 0 37.847 8.274 49.933 21.493 17.084-5.386 37.309-3.264 53.961 6.34 16.679 9.619 28.633 26.078 32.483 43.579 17.485 3.874 33.93 15.829 43.547 32.489 9.638 16.695 11.773 36.915 6.377 53.972 13.223 12.078 21.499 30.659 21.499 49.927s-8.276 37.849-21.499 49.927c5.396 17.057 3.261 37.276-6.376 53.973-9.617 16.659-26.064 28.614-43.548 32.488-3.851 17.502-15.804 33.96-32.483 43.579-16.651 9.604-36.877 11.726-53.961 6.34-12.086 13.219-30.671 21.493-49.933 21.493z" fill="#97db4f"/><path d="m334.727 129.036c-5.859-5.855-15.357-5.854-21.213.005l-42.514 42.534v-60.175c0-8.284-6.716-15-15-15s-15 6.716-15 15v156.587l-70.793-70.794c-5.857-5.858-15.355-5.858-21.213 0-5.858 5.857-5.858 15.355 0 21.213l92.006 92.007v186.587c0 8.284 6.716 15 15 15s15-6.716 15-15v-282.989l63.731-63.761c5.857-5.859 5.855-15.357-.004-21.214z" fill="#334a5e"/></g></svg>